<?xml version="1.0" encoding="utf-8"?>
<!-- Generator: Adobe Illustrator 25.2.1, SVG Export Plug-In . SVG Version: 6.00 Build 0)  -->
<svg version="1.1" id="Layer_1" xmlns="http://www.w3.org/2000/svg" xmlns:xlink="http://www.w3.org/1999/xlink" x="0px" y="0px"
	 viewBox="0 0 841.89 595.28" style="enable-background:new 0 0 841.89 595.28;" xml:space="preserve">
<g>
	<g>
		<g>
			<path d="M360.22,325.95l10.77-1.76v-85.26l-10.77-1.64v-2.58h44.86c8.59,0,16.22,1.93,22.9,5.8c6.68,3.87,11.89,9.33,15.63,16.4
				c3.75,7.07,5.62,15.28,5.62,24.65s-1.87,17.59-5.62,24.65c-3.75,7.07-8.98,12.53-15.69,16.4c-6.72,3.87-14.33,5.8-22.84,5.8
				h-44.86V325.95z M405.07,325.6c5.7,0,10.75-1.33,15.17-3.98c4.41-2.65,7.87-6.62,10.36-11.89c2.5-5.27,3.75-11.65,3.75-19.15
				v-18.04c0-7.5-1.25-13.86-3.75-19.09c-2.5-5.23-5.95-9.17-10.36-11.83c-4.41-2.65-9.47-3.98-15.17-3.98h-21.2v87.96H405.07z"/>
			<path d="M470.6,325.37c-3.24-2.81-4.86-6.99-4.86-12.53v-41.58l-8.2-1.17v-2.34h19.91v44.86c0,3.98,0.82,7.11,2.46,9.37
				c1.64,2.27,4.18,3.4,7.61,3.4c3.59,0,7.04-1.19,10.37-3.57c3.32-2.38,6.27-5.33,8.84-8.84v-41.69l-8.2-1.17v-2.34h19.91v57.15
				l8.2,1.17v2.34h-19.91v-11.24c-2.81,3.91-6.19,6.95-10.13,9.13c-3.94,2.18-8.18,3.28-12.71,3.28
				C478.27,329.58,473.84,328.18,470.6,325.37z"/>
			<path d="M531.91,328.41v-2.34l8.78-1.17v-86.67l-8.78-1.17v-2.34h20.5v90.18l8.2,1.17v2.34H531.91z"/>
			<path d="M583.09,325.66c-4.61-2.61-8.26-6.32-10.95-11.13c-2.69-4.8-4.04-10.29-4.04-16.45c0-6.48,1.42-12.1,4.27-16.87
				c2.85-4.76,6.58-8.37,11.18-10.83c4.61-2.46,9.56-3.69,14.87-3.69c4.45,0,8.51,0.76,12.18,2.28c3.67,1.52,6.58,3.65,8.73,6.38
				c2.15,2.73,3.22,5.82,3.22,9.25c0,2.58-0.66,4.55-1.99,5.91c-1.33,1.37-3.08,2.05-5.27,2.05c-2.11,0-3.86-0.7-5.27-2.11
				c-1.41-1.41-2.11-3.16-2.11-5.27c1.17-0.78,1.99-1.64,2.46-2.58c0.47-0.94,0.7-2.11,0.7-3.51c0-2.89-1.15-5.25-3.46-7.08
				c-2.3-1.83-5.37-2.75-9.19-2.75c-5.62,0-9.94,2.01-12.94,6.03c-3.01,4.02-4.51,9.66-4.51,16.92v11.71
				c0,6.95,1.46,12.53,4.39,16.75c2.93,4.22,7.28,6.32,13.06,6.32c5.31,0,9.93-1.5,13.88-4.51c3.94-3,6.38-6.97,7.32-11.89h2.69
				c-1.09,5.78-3.81,10.38-8.14,13.82c-4.33,3.44-9.58,5.15-15.75,5.15C592.81,329.58,587.69,328.27,583.09,325.66z"/>
			<path d="M647.38,325.66c-4.68-2.61-8.39-6.3-11.13-11.07c-2.73-4.76-4.1-10.27-4.1-16.51c0-6.25,1.35-11.73,4.04-16.46
				c2.69-4.72,6.32-8.39,10.89-11.01c4.57-2.62,9.66-3.92,15.28-3.92c4.92,0,9.33,1.09,13.23,3.28c3.9,2.19,6.95,5.21,9.13,9.08
				c2.19,3.87,3.32,8.3,3.4,13.29h-43.1v11.59c0,6.87,1.54,12.43,4.63,16.69c3.08,4.26,7.55,6.38,13.41,6.38
				c5.39,0,10.15-1.52,14.29-4.57c4.14-3.04,6.68-6.99,7.61-11.83h2.69c-1.09,5.78-3.86,10.38-8.32,13.82
				c-4.45,3.44-9.88,5.15-16.28,5.15C657.3,329.58,652.07,328.27,647.38,325.66z M675.26,289.41c0-6.79-1.05-11.85-3.16-15.17
				c-2.11-3.32-5.39-4.98-9.84-4.98c-5.23,0-9.29,1.83-12.18,5.5c-2.89,3.67-4.53,8.55-4.92,14.64H675.26z"/>
			<path d="M704.89,325.48c-4.29-2.73-6.44-6.28-6.44-10.66c0-2.26,0.6-4.04,1.82-5.33c1.21-1.29,2.83-1.93,4.86-1.93
				c1.56,0,2.89,0.39,3.98,1.17c1.09,0.78,1.87,1.87,2.34,3.28c-1.72,1.87-2.58,3.87-2.58,5.97c0,2.42,1.09,4.53,3.28,6.32
				c2.18,1.8,5.11,2.69,8.78,2.69c4.92,0,8.94-1.11,12.06-3.34c3.12-2.23,4.68-5.21,4.68-8.96c0-2.18-0.66-3.82-1.99-4.92
				c-1.33-1.09-3.91-2.34-7.73-3.75l-17.68-6.44c-6.95-2.5-10.42-7.14-10.42-13.94c0-5.54,1.91-10.09,5.74-13.64
				c3.82-3.55,9.09-5.33,15.81-5.33c5.54,0,10.29,1.27,14.23,3.81c3.94,2.54,5.92,6.15,5.92,10.83c0,1.87-0.51,3.38-1.52,4.51
				c-1.02,1.13-2.34,1.7-3.98,1.7s-2.99-0.45-4.04-1.35c-1.05-0.9-1.58-2.13-1.58-3.69c1.01-0.78,1.72-1.62,2.11-2.52
				c0.39-0.9,0.59-1.97,0.59-3.22c0-2.18-0.96-3.98-2.87-5.39c-1.91-1.41-4.86-2.11-8.84-2.11c-3.44,0-6.38,0.53-8.84,1.58
				c-2.46,1.05-4.32,2.44-5.56,4.16c-1.25,1.72-1.87,3.47-1.87,5.27c0,1.87,0.68,3.36,2.05,4.45c1.37,1.09,3.88,2.3,7.55,3.63
				l16.4,5.86c3.83,1.41,6.71,3.36,8.67,5.86c1.95,2.5,2.93,5.74,2.93,9.72c0,5.7-1.8,10.42-5.39,14.17
				c-3.59,3.75-9.06,5.62-16.4,5.62C714.53,329.58,709.18,328.22,704.89,325.48z"/>
		</g>
		<g>
			<path d="M367.2,378.45l-2.87,1.45h-0.74v-8.68h0.74l2.91,6.28c1.87,1.33,4.01,1.99,6.42,1.99c1.98,0,3.62-0.52,4.92-1.57
				s1.94-2.52,1.94-4.41c0-1.37-0.42-2.46-1.25-3.26c-0.83-0.8-2.19-1.44-4.05-1.91l-5.61-1.45c-1.96-0.52-3.44-1.4-4.43-2.65
				c-0.99-1.25-1.49-2.73-1.49-4.44c0-1.55,0.31-2.93,0.93-4.14c0.62-1.2,1.53-2.14,2.72-2.8c1.19-0.66,2.61-1,4.26-1
				c2.05,0,3.89,0.35,5.51,1.05l2.47-1.05h0.74v6.89h-0.74l-2.43-4.93c-1.69-0.81-3.53-1.22-5.51-1.22c-1.96,0-3.5,0.5-4.63,1.5
				c-1.13,1-1.69,2.33-1.69,3.97c0,1.22,0.4,2.17,1.2,2.87c0.8,0.7,1.98,1.25,3.53,1.66l6.05,1.59c1.96,0.5,3.42,1.35,4.38,2.55
				c0.96,1.21,1.44,3.04,1.44,5.49c0,2.5-0.77,4.46-2.31,5.88c-1.54,1.42-3.61,2.13-6.2,2.13
				C371.29,380.24,369.23,379.65,367.2,378.45z"/>
			<path d="M406.5,378.77c-1.33-0.75-2.38-1.82-3.16-3.21c-0.78-1.39-1.17-2.97-1.17-4.75c0-1.78,0.39-3.36,1.17-4.73
				c0.78-1.37,1.83-2.44,3.16-3.19c1.33-0.75,2.8-1.13,4.43-1.13c1.62,0,3.1,0.38,4.43,1.13c1.33,0.75,2.38,1.82,3.16,3.19
				c0.78,1.37,1.17,2.95,1.17,4.73c0,1.78-0.39,3.36-1.17,4.75s-1.83,2.46-3.16,3.21c-1.33,0.75-2.8,1.13-4.43,1.13
				C409.3,379.91,407.83,379.53,406.5,378.77z M414.69,377.34c0.84-1.22,1.27-2.83,1.27-4.83v-3.38c0-2-0.42-3.61-1.27-4.81
				c-0.84-1.2-2.1-1.81-3.77-1.81c-1.67,0-2.92,0.6-3.77,1.81c-0.84,1.21-1.27,2.81-1.27,4.81v3.38c0,2,0.42,3.62,1.27,4.83
				s2.1,1.82,3.77,1.82C412.59,379.16,413.85,378.55,414.69,377.34z"/>
			<path d="M438.93,378.89l2.37-0.34v-15.47l-2.37-0.34v-0.68h5.74v2.6c1.42-1.94,3.02-2.91,4.8-2.91c0.86,0,1.61,0.22,2.26,0.66
				s0.98,1.06,0.98,1.88c0,0.59-0.19,1.08-0.57,1.47c-0.38,0.39-0.89,0.59-1.52,0.59c-0.72,0-1.31-0.28-1.76-0.84
				c0.25-0.31,0.37-0.65,0.37-1.01c0-0.38-0.13-0.69-0.39-0.93c-0.26-0.24-0.6-0.35-1.03-0.35c-0.47,0-0.96,0.22-1.45,0.66
				c-0.5,0.44-1.06,1.12-1.69,2.04v12.64l2.7,0.34v0.68h-8.45V378.89z"/>
			<path d="M470.56,388.45l2.36-0.34v-25l-2.36-0.34v-0.68h5.74v3.55c0.56-1.22,1.32-2.17,2.28-2.85c0.96-0.69,2.1-1.03,3.43-1.03
				c1.6,0,3.01,0.38,4.22,1.13c1.22,0.75,2.16,1.81,2.84,3.18c0.68,1.36,1.01,2.96,1.01,4.78c0,1.82-0.34,3.42-1.01,4.78
				s-1.62,2.42-2.84,3.16c-1.22,0.74-2.62,1.12-4.22,1.12c-1.33,0-2.47-0.34-3.43-1.03c-0.96-0.69-1.72-1.63-2.28-2.82v12.06
				l3.18,0.34v0.68h-8.92V388.45z M486.37,372.54v-3.38c0-4.37-1.57-6.55-4.7-6.55c-0.99,0-1.89,0.29-2.7,0.86
				c-0.81,0.57-1.45,1.35-1.93,2.31c-0.47,0.97-0.72,2.02-0.74,3.14v3.62c0,1.15,0.23,2.22,0.69,3.23c0.46,1,1.1,1.8,1.93,2.4
				c0.82,0.6,1.74,0.9,2.75,0.9C484.8,379.06,486.37,376.89,486.37,372.54z"/>
			<path d="M509.34,378.89l2.37-0.34v-15.47l-2.37-0.34v-0.68h5.74v2.6c1.42-1.94,3.02-2.91,4.8-2.91c0.86,0,1.61,0.22,2.26,0.66
				s0.98,1.06,0.98,1.88c0,0.59-0.19,1.08-0.57,1.47c-0.38,0.39-0.89,0.59-1.52,0.59c-0.72,0-1.31-0.28-1.76-0.84
				c0.25-0.31,0.37-0.65,0.37-1.01c0-0.38-0.13-0.69-0.39-0.93c-0.26-0.24-0.6-0.35-1.03-0.35c-0.47,0-0.96,0.22-1.45,0.66
				c-0.5,0.44-1.06,1.12-1.69,2.04v12.64l2.7,0.34v0.68h-8.45V378.89z"/>
			<path d="M545.77,378.77c-1.35-0.75-2.42-1.82-3.21-3.19c-0.79-1.37-1.18-2.96-1.18-4.76c0-1.8,0.39-3.38,1.17-4.75
				c0.78-1.36,1.83-2.42,3.14-3.18c1.32-0.75,2.79-1.13,4.41-1.13c1.42,0,2.69,0.32,3.82,0.95c1.13,0.63,2,1.5,2.63,2.62
				c0.63,1.11,0.96,2.39,0.98,3.83h-12.43v3.34c0,1.98,0.45,3.59,1.33,4.81c0.89,1.23,2.18,1.84,3.87,1.84
				c1.55,0,2.93-0.44,4.12-1.32c1.19-0.88,1.93-2.02,2.2-3.41h0.78c-0.32,1.67-1.12,3-2.4,3.99c-1.28,0.99-2.85,1.49-4.7,1.49
				C548.63,379.91,547.12,379.53,545.77,378.77z M553.81,368.32c0-1.96-0.3-3.42-0.91-4.38c-0.61-0.96-1.55-1.44-2.84-1.44
				c-1.51,0-2.68,0.53-3.51,1.59c-0.83,1.06-1.31,2.47-1.42,4.22H553.81z"/>
			<path d="M579.25,378.72c-1.24-0.79-1.86-1.81-1.86-3.07c0-0.65,0.17-1.17,0.52-1.54c0.35-0.37,0.82-0.56,1.4-0.56
				c0.45,0,0.83,0.11,1.15,0.34c0.32,0.23,0.54,0.54,0.68,0.95c-0.5,0.54-0.74,1.11-0.74,1.72c0,0.7,0.32,1.31,0.95,1.82
				c0.63,0.52,1.47,0.78,2.53,0.78c1.42,0,2.58-0.32,3.48-0.96c0.9-0.64,1.35-1.5,1.35-2.58c0-0.63-0.19-1.1-0.57-1.42
				c-0.38-0.32-1.13-0.68-2.23-1.08l-5.1-1.86c-2-0.72-3.01-2.06-3.01-4.02c0-1.6,0.55-2.91,1.66-3.94c1.1-1.02,2.62-1.54,4.56-1.54
				c1.6,0,2.97,0.37,4.11,1.1c1.14,0.73,1.71,1.77,1.71,3.13c0,0.54-0.15,0.97-0.44,1.3c-0.29,0.33-0.68,0.49-1.15,0.49
				c-0.47,0-0.86-0.13-1.17-0.39c-0.3-0.26-0.46-0.61-0.46-1.06c0.29-0.22,0.5-0.47,0.61-0.73c0.11-0.26,0.17-0.57,0.17-0.93
				c0-0.63-0.28-1.15-0.83-1.55c-0.55-0.41-1.4-0.61-2.55-0.61c-0.99,0-1.84,0.15-2.55,0.46c-0.71,0.3-1.25,0.7-1.61,1.2
				s-0.54,1-0.54,1.52c0,0.54,0.2,0.97,0.59,1.28s1.12,0.66,2.18,1.05l4.73,1.69c1.1,0.41,1.94,0.97,2.5,1.69
				c0.56,0.72,0.84,1.66,0.84,2.8c0,1.64-0.52,3.01-1.55,4.09c-1.04,1.08-2.61,1.62-4.73,1.62
				C582.03,379.91,580.49,379.51,579.25,378.72z"/>
			<path d="M611.68,378.77c-0.92-0.75-1.38-1.88-1.38-3.36c0-2.12,0.89-3.62,2.67-4.51c1.78-0.89,3.84-1.33,6.18-1.33h2.26v-2.6
				c0-1.17-0.13-2.08-0.39-2.72c-0.26-0.64-0.66-1.09-1.2-1.35c-0.54-0.26-1.27-0.39-2.2-0.39c-1.06,0-1.85,0.21-2.37,0.63
				c-0.52,0.42-0.78,0.97-0.78,1.67c0,0.65,0.31,1.08,0.95,1.28c0,0.56-0.21,1.06-0.64,1.49c-0.43,0.43-0.93,0.64-1.52,0.64
				c-0.63,0-1.14-0.17-1.52-0.52s-0.57-0.88-0.57-1.6c0-1.31,0.65-2.35,1.96-3.14c1.31-0.79,2.94-1.18,4.9-1.18
				c4.5,0,6.76,1.96,6.76,5.88v9.66c0,0.5,0.11,0.87,0.32,1.13c0.21,0.26,0.52,0.39,0.93,0.39c0.38,0,0.69-0.13,0.91-0.39
				c0.23-0.26,0.34-0.61,0.34-1.06H628c0,0.79-0.25,1.41-0.76,1.86s-1.21,0.68-2.11,0.68c-1.04,0-1.91-0.3-2.62-0.9
				c-0.71-0.6-1.08-1.53-1.1-2.79c-0.54,1.15-1.37,2.05-2.48,2.7c-1.11,0.65-2.35,0.98-3.7,0.98
				C613.79,379.91,612.61,379.53,611.68,378.77z M618.97,377.88c0.64-0.36,1.19-0.88,1.64-1.57c0.45-0.69,0.72-1.51,0.81-2.48v-3.51
				h-2.26c-1.85,0-3.23,0.41-4.14,1.23c-0.91,0.82-1.37,1.98-1.37,3.46c0,1.24,0.29,2.12,0.88,2.64c0.59,0.52,1.44,0.78,2.57,0.78
				C617.7,378.42,618.32,378.24,618.97,377.88z"/>
			<path d="M648.28,378.72c-1.24-0.79-1.86-1.81-1.86-3.07c0-0.65,0.17-1.17,0.52-1.54c0.35-0.37,0.82-0.56,1.4-0.56
				c0.45,0,0.83,0.11,1.15,0.34c0.32,0.23,0.54,0.54,0.68,0.95c-0.5,0.54-0.74,1.11-0.74,1.72c0,0.7,0.32,1.31,0.95,1.82
				c0.63,0.52,1.47,0.78,2.53,0.78c1.42,0,2.58-0.32,3.48-0.96c0.9-0.64,1.35-1.5,1.35-2.58c0-0.63-0.19-1.1-0.57-1.42
				c-0.38-0.32-1.13-0.68-2.23-1.08l-5.1-1.86c-2-0.72-3.01-2.06-3.01-4.02c0-1.6,0.55-2.91,1.66-3.94c1.1-1.02,2.62-1.54,4.56-1.54
				c1.6,0,2.97,0.37,4.11,1.1c1.14,0.73,1.71,1.77,1.71,3.13c0,0.54-0.15,0.97-0.44,1.3c-0.29,0.33-0.68,0.49-1.15,0.49
				c-0.47,0-0.86-0.13-1.17-0.39c-0.3-0.26-0.46-0.61-0.46-1.06c0.29-0.22,0.5-0.47,0.61-0.73c0.11-0.26,0.17-0.57,0.17-0.93
				c0-0.63-0.28-1.15-0.83-1.55c-0.55-0.41-1.4-0.61-2.55-0.61c-0.99,0-1.84,0.15-2.55,0.46c-0.71,0.3-1.25,0.7-1.61,1.2
				s-0.54,1-0.54,1.52c0,0.54,0.2,0.97,0.59,1.28s1.12,0.66,2.18,1.05l4.73,1.69c1.1,0.41,1.94,0.97,2.5,1.69
				c0.56,0.72,0.84,1.66,0.84,2.8c0,1.64-0.52,3.01-1.55,4.09c-1.04,1.08-2.61,1.62-4.73,1.62
				C651.06,379.91,649.52,379.51,648.28,378.72z"/>
		</g>
	</g>
	<g>
		<path d="M207.8,188.15c-60.41,0-109.38,48.97-109.38,109.38c0,60.41,48.97,109.38,109.38,109.38
			c60.41,0,109.38-48.97,109.38-109.38C317.18,237.12,268.21,188.15,207.8,188.15z M207.8,401.09
			c-57.2,0-103.56-46.37-103.56-103.56c0-57.2,46.37-103.56,103.56-103.56s103.56,46.37,103.56,103.56
			C311.37,354.72,265,401.09,207.8,401.09z"/>
		<path d="M197.48,306.21c0-5.52,1.1-10.42,3.3-14.7c2.2-4.28,5.42-7.6,9.66-9.96c4.24-2.36,9.28-3.54,15.12-3.54
			c1.31,0,2.58,0.05,3.84,0.13V269c0-7.68-1.28-14.2-3.84-19.56c-2.56-5.36-6.1-9.4-10.62-12.12c-4.52-2.72-9.7-4.08-15.54-4.08
			h-21.72v90.12h21.72c1.48,0,2.92-0.09,4.32-0.27c-0.33-0.36-0.66-0.72-0.97-1.11C199.24,317.55,197.48,312.29,197.48,306.21z"/>
		<path d="M229.4,280.8c-1.23-0.09-2.46-0.15-3.72-0.15c-6.96,0-12.44,1.78-16.44,5.34c-4,3.56-6,8.26-6,14.1
			c0,4.32,1.42,7.72,4.26,10.2c2.71,2.36,6.64,4.25,11.78,5.67c2.51-2.38,4.61-5.33,6.28-8.86c2.56-5.4,3.84-11.94,3.84-19.62V280.8
			z"/>
		<path d="M207.8,197.96c-54.9,0-99.56,44.66-99.56,99.56s44.66,99.56,99.56,99.56s99.56-44.66,99.56-99.56
			S262.7,197.96,207.8,197.96z M253.94,371.25c-5.48,5.04-12.82,7.56-22.02,7.56c-7.44,0-14.76-2.12-21.96-6.36l-10.2,5.16h-2.64
			v-30.84h2.64l10.32,22.32c6.64,4.72,14.24,7.08,22.8,7.08c7.04,0,12.86-1.86,17.46-5.58c4.6-3.72,6.9-8.94,6.9-15.66
			c0-4.88-1.48-8.74-4.44-11.58c-2.96-2.84-7.76-5.1-14.4-6.78l-19.92-5.16c-4.79-1.27-8.75-3.16-11.91-5.66
			c-2.32,0.32-4.7,0.49-7.17,0.49h-45.96v-2.52l11.04-1.8v-87.36l-11.04-1.68v-2.64h45.96c8.8,0,16.62,1.98,23.46,5.94
			c6.84,3.96,12.18,9.56,16.02,16.8c3.84,7.24,5.76,15.66,5.76,25.26c0,1.11-0.03,2.19-0.08,3.27c0.19,0.08,0.38,0.14,0.56,0.22
			l8.76-3.72h2.64v24.48h-2.64l-8.64-17.52c-0.3-0.14-0.61-0.27-0.91-0.4c-0.67,7.02-2.48,13.33-5.45,18.93
			c-3.12,5.88-7.25,10.65-12.37,14.37l15.01,3.94c6.96,1.76,12.14,4.78,15.54,9.06c3.4,4.28,5.1,10.78,5.1,19.5
			C262.16,359.25,259.42,366.21,253.94,371.25z"/>
	</g>
</g>
</svg>
