<?xml version="1.0" encoding="utf-8"?>
<!-- Generator: Adobe Illustrator 25.2.1, SVG Export Plug-In . SVG Version: 6.00 Build 0)  -->
<svg version="1.1" id="Layer_1" xmlns="http://www.w3.org/2000/svg" xmlns:xlink="http://www.w3.org/1999/xlink" x="0px" y="0px"
	 viewBox="0 0 595.28 841.89" style="enable-background:new 0 0 595.28 841.89;" xml:space="preserve">
<style type="text/css">
	.st0{fill:url(#SVGID_1_);}
	.st1{fill:url(#SVGID_2_);}
	.st2{fill:#FBDEC0;}
</style>
<g>
	<g>
		<g>
			<path d="M150.72,556.27l8.26-1.35V489.6l-8.26-1.26v-1.97h34.37c6.58,0,12.43,1.48,17.54,4.44c5.12,2.96,9.11,7.15,11.98,12.56
				c2.87,5.42,4.31,11.71,4.31,18.89c0,7.18-1.44,13.48-4.31,18.89c-2.87,5.42-6.88,9.6-12.02,12.56
				c-5.15,2.96-10.98,4.44-17.5,4.44h-34.37V556.27z M185.09,556c4.37,0,8.24-1.02,11.62-3.05c3.38-2.03,6.03-5.07,7.94-9.11
				c1.91-4.04,2.87-8.93,2.87-14.67v-13.82c0-5.74-0.96-10.62-2.87-14.63c-1.92-4.01-4.56-7.03-7.94-9.06
				c-3.38-2.03-7.25-3.05-11.62-3.05h-16.24V556H185.09z"/>
			<path d="M235.3,555.82c-2.48-2.15-3.72-5.35-3.72-9.6v-31.86l-6.28-0.9v-1.79h15.25v34.37c0,3.05,0.63,5.44,1.88,7.18
				c1.26,1.74,3.2,2.6,5.83,2.6c2.75,0,5.4-0.91,7.94-2.74c2.54-1.82,4.8-4.08,6.78-6.77v-31.95l-6.28-0.9v-1.79h15.25v43.79
				l6.28,0.9v1.79h-15.25v-8.61c-2.15,2.99-4.74,5.33-7.76,7c-3.02,1.67-6.27,2.51-9.74,2.51
				C241.18,559.05,237.78,557.98,235.3,555.82z"/>
			<path d="M282.28,558.16v-1.79l6.73-0.9v-66.4l-6.73-0.9v-1.79h15.7v69.1l6.28,0.9v1.79H282.28z"/>
			<path d="M321.49,556.05c-3.53-2-6.33-4.85-8.39-8.52c-2.06-3.68-3.1-7.88-3.1-12.61c0-4.96,1.09-9.27,3.27-12.92
				c2.18-3.65,5.04-6.42,8.57-8.3c3.53-1.88,7.33-2.83,11.4-2.83c3.41,0,6.52,0.58,9.33,1.75c2.81,1.17,5.04,2.8,6.69,4.89
				c1.64,2.09,2.47,4.46,2.47,7.09c0,1.97-0.51,3.49-1.53,4.53c-1.02,1.05-2.36,1.57-4.04,1.57c-1.62,0-2.96-0.54-4.04-1.62
				c-1.08-1.08-1.62-2.42-1.62-4.04c0.9-0.6,1.53-1.26,1.88-1.97c0.36-0.72,0.54-1.62,0.54-2.69c0-2.21-0.88-4.02-2.65-5.43
				c-1.76-1.4-4.11-2.11-7.04-2.11c-4.31,0-7.61,1.54-9.92,4.62c-2.3,3.08-3.46,7.4-3.46,12.97v8.97c0,5.33,1.12,9.6,3.37,12.83
				s5.58,4.85,10.01,4.85c4.07,0,7.61-1.15,10.63-3.46c3.02-2.3,4.89-5.34,5.61-9.11h2.06c-0.84,4.43-2.92,7.96-6.24,10.59
				c-3.32,2.63-7.34,3.95-12.07,3.95C328.94,559.05,325.02,558.05,321.49,556.05z"/>
			<path d="M370.76,556.05c-3.59-2-6.43-4.83-8.53-8.48c-2.09-3.65-3.14-7.87-3.14-12.65c0-4.79,1.03-8.99,3.1-12.61
				c2.06-3.62,4.85-6.43,8.35-8.44c3.5-2,7.4-3.01,11.71-3.01c3.77,0,7.15,0.84,10.14,2.51c2.99,1.68,5.32,3.99,7,6.95
				s2.54,6.36,2.6,10.19h-33.02v8.88c0,5.27,1.18,9.53,3.54,12.79c2.36,3.26,5.79,4.89,10.27,4.89c4.13,0,7.78-1.17,10.95-3.5
				c3.17-2.33,5.12-5.35,5.83-9.06h2.06c-0.84,4.43-2.96,7.96-6.37,10.59c-3.41,2.63-7.57,3.95-12.47,3.95
				C378.35,559.05,374.34,558.05,370.76,556.05z M392.11,528.27c0-5.21-0.81-9.08-2.42-11.62c-1.62-2.54-4.13-3.81-7.54-3.81
				c-4.01,0-7.12,1.41-9.33,4.22c-2.21,2.81-3.47,6.55-3.77,11.22H392.11z"/>
			<path d="M414.81,555.91c-3.29-2.09-4.94-4.81-4.94-8.17c0-1.73,0.46-3.1,1.39-4.08c0.93-0.99,2.17-1.48,3.72-1.48
				c1.2,0,2.21,0.3,3.05,0.9c0.84,0.6,1.44,1.44,1.79,2.51c-1.32,1.44-1.97,2.96-1.97,4.58c0,1.85,0.84,3.47,2.51,4.85
				c1.67,1.38,3.92,2.06,6.73,2.06c3.77,0,6.85-0.85,9.24-2.56c2.39-1.71,3.59-3.99,3.59-6.86c0-1.67-0.51-2.93-1.53-3.77
				c-1.02-0.84-2.99-1.79-5.92-2.87l-13.55-4.94c-5.33-1.91-7.99-5.47-7.99-10.68c0-4.25,1.47-7.73,4.4-10.45
				c2.93-2.72,6.97-4.08,12.11-4.08c4.25,0,7.88,0.97,10.9,2.92c3.02,1.94,4.53,4.71,4.53,8.3c0,1.44-0.39,2.59-1.17,3.45
				c-0.78,0.87-1.79,1.3-3.05,1.3s-2.29-0.34-3.1-1.03c-0.81-0.69-1.21-1.63-1.21-2.83c0.78-0.6,1.32-1.24,1.62-1.93
				c0.3-0.69,0.45-1.51,0.45-2.47c0-1.67-0.73-3.05-2.2-4.13c-1.47-1.08-3.72-1.62-6.77-1.62c-2.63,0-4.89,0.4-6.78,1.21
				c-1.88,0.81-3.31,1.87-4.26,3.19c-0.96,1.32-1.44,2.66-1.44,4.04c0,1.44,0.52,2.57,1.57,3.41c1.05,0.84,2.98,1.77,5.79,2.78
				l12.56,4.49c2.93,1.08,5.14,2.57,6.64,4.49c1.5,1.92,2.24,4.4,2.24,7.45c0,4.37-1.38,7.99-4.13,10.86
				c-2.75,2.87-6.94,4.31-12.56,4.31C422.2,559.05,418.1,558.01,414.81,555.91z"/>
		</g>
		<g>
			<path d="M180.98,603.29l-2.2,1.11h-0.57v-6.65h0.57l2.23,4.82c1.43,1.02,3.07,1.53,4.92,1.53c1.52,0,2.77-0.4,3.77-1.2
				c0.99-0.8,1.49-1.93,1.49-3.38c0-1.05-0.32-1.89-0.96-2.5c-0.64-0.61-1.67-1.1-3.11-1.46l-4.3-1.11c-1.5-0.4-2.63-1.07-3.39-2.03
				s-1.14-2.09-1.14-3.4c0-1.19,0.24-2.25,0.71-3.17s1.17-1.64,2.08-2.15c0.91-0.51,2-0.76,3.26-0.76c1.57,0,2.98,0.27,4.22,0.8
				l1.89-0.8h0.57v5.28h-0.57l-1.86-3.78c-1.29-0.62-2.7-0.93-4.22-0.93c-1.5,0-2.68,0.38-3.55,1.15c-0.86,0.77-1.29,1.78-1.29,3.04
				c0,0.93,0.31,1.67,0.92,2.2c0.61,0.54,1.51,0.96,2.71,1.27l4.63,1.22c1.5,0.38,2.62,1.03,3.35,1.96c0.73,0.92,1.1,2.33,1.1,4.21
				c0,1.92-0.59,3.42-1.77,4.5c-1.18,1.09-2.77,1.63-4.75,1.63C184.11,604.66,182.53,604.2,180.98,603.29z"/>
			<path d="M211.09,603.53c-1.02-0.58-1.83-1.4-2.42-2.46c-0.59-1.06-0.89-2.27-0.89-3.64c0-1.36,0.3-2.57,0.89-3.62
				c0.6-1.05,1.4-1.87,2.42-2.45c1.02-0.58,2.15-0.87,3.39-0.87c1.24,0,2.37,0.29,3.39,0.87s1.83,1.39,2.42,2.45
				s0.89,2.26,0.89,3.62c0,1.36-0.3,2.58-0.89,3.64s-1.4,1.88-2.42,2.46c-1.02,0.58-2.15,0.87-3.39,0.87
				C213.24,604.4,212.11,604.11,211.09,603.53z M217.37,602.43c0.65-0.93,0.97-2.17,0.97-3.7v-2.59c0-1.54-0.32-2.77-0.97-3.69
				c-0.65-0.92-1.61-1.38-2.89-1.38c-1.28,0-2.24,0.46-2.89,1.38c-0.65,0.92-0.97,2.15-0.97,3.69v2.59c0,1.54,0.32,2.77,0.97,3.7
				c0.65,0.93,1.61,1.4,2.89,1.4C215.76,603.83,216.72,603.36,217.37,602.43z"/>
			<path d="M235.94,603.62l1.81-0.26v-11.86l-1.81-0.26v-0.52h4.4v1.99c1.09-1.48,2.31-2.23,3.68-2.23c0.66,0,1.23,0.17,1.74,0.5
				c0.5,0.34,0.75,0.82,0.75,1.44c0,0.45-0.15,0.82-0.44,1.13c-0.29,0.3-0.68,0.45-1.17,0.45c-0.55,0-1-0.22-1.35-0.65
				c0.19-0.24,0.29-0.5,0.29-0.78c0-0.29-0.1-0.53-0.3-0.71s-0.46-0.27-0.79-0.27c-0.36,0-0.73,0.17-1.11,0.5
				c-0.38,0.34-0.81,0.86-1.29,1.57v9.68l2.07,0.26v0.52h-6.47V603.62z"/>
			<path d="M260.17,610.95l1.81-0.26v-19.16l-1.81-0.26v-0.52h4.4v2.72c0.43-0.93,1.01-1.66,1.75-2.19
				c0.73-0.53,1.61-0.79,2.63-0.79c1.23,0,2.3,0.29,3.24,0.87c0.93,0.58,1.66,1.39,2.17,2.43c0.52,1.04,0.78,2.26,0.78,3.66
				c0,1.4-0.26,2.62-0.78,3.66c-0.52,1.04-1.24,1.85-2.17,2.42c-0.93,0.57-2.01,0.85-3.24,0.85c-1.02,0-1.89-0.26-2.63-0.79
				s-1.32-1.25-1.75-2.16v9.24l2.43,0.26v0.52h-6.83V610.95z M272.29,598.76v-2.59c0-3.35-1.2-5.02-3.6-5.02
				c-0.76,0-1.45,0.22-2.07,0.66c-0.62,0.44-1.11,1.03-1.48,1.77c-0.36,0.74-0.55,1.54-0.57,2.41v2.77c0,0.88,0.18,1.71,0.53,2.47
				c0.35,0.77,0.85,1.38,1.48,1.84c0.63,0.46,1.33,0.69,2.11,0.69C271.09,603.75,272.29,602.09,272.29,598.76z"/>
			<path d="M289.89,603.62l1.81-0.26v-11.86l-1.81-0.26v-0.52h4.4v1.99c1.09-1.48,2.31-2.23,3.68-2.23c0.66,0,1.23,0.17,1.73,0.5
				c0.5,0.34,0.75,0.82,0.75,1.44c0,0.45-0.15,0.82-0.44,1.13c-0.29,0.3-0.68,0.45-1.17,0.45c-0.55,0-1-0.22-1.35-0.65
				c0.19-0.24,0.28-0.5,0.28-0.78c0-0.29-0.1-0.53-0.3-0.71c-0.2-0.18-0.46-0.27-0.79-0.27c-0.36,0-0.73,0.17-1.11,0.5
				c-0.38,0.34-0.81,0.86-1.29,1.57v9.68l2.07,0.26v0.52h-6.47V603.62z"/>
			<path d="M317.8,603.53c-1.04-0.58-1.86-1.39-2.46-2.45c-0.6-1.05-0.91-2.27-0.91-3.65c0-1.38,0.3-2.59,0.89-3.64
				c0.6-1.04,1.4-1.86,2.41-2.43c1.01-0.58,2.14-0.87,3.38-0.87c1.09,0,2.06,0.24,2.93,0.72c0.86,0.48,1.54,1.15,2.02,2.01
				c0.48,0.85,0.73,1.83,0.75,2.94h-9.53v2.56c0,1.52,0.34,2.75,1.02,3.69c0.68,0.94,1.67,1.41,2.96,1.41
				c1.19,0,2.24-0.34,3.16-1.01c0.92-0.67,1.48-1.54,1.68-2.61h0.6c-0.24,1.28-0.85,2.29-1.84,3.05s-2.18,1.14-3.6,1.14
				C319.99,604.4,318.83,604.11,317.8,603.53z M323.96,595.52c0-1.5-0.23-2.62-0.7-3.35c-0.47-0.73-1.19-1.1-2.17-1.1
				c-1.16,0-2.05,0.41-2.69,1.22c-0.64,0.81-1,1.89-1.09,3.24H323.96z"/>
			<path d="M343.45,603.49c-0.95-0.6-1.42-1.39-1.42-2.36c0-0.5,0.13-0.89,0.4-1.18c0.27-0.29,0.63-0.43,1.07-0.43
				c0.34,0,0.64,0.09,0.88,0.26c0.24,0.17,0.41,0.41,0.52,0.72c-0.38,0.41-0.57,0.85-0.57,1.32c0,0.54,0.24,1,0.72,1.4
				c0.48,0.4,1.13,0.6,1.94,0.6c1.09,0,1.98-0.25,2.67-0.74c0.69-0.49,1.04-1.15,1.04-1.98c0-0.48-0.15-0.85-0.44-1.09
				c-0.29-0.24-0.86-0.52-1.71-0.83l-3.91-1.42c-1.54-0.55-2.3-1.58-2.3-3.08c0-1.22,0.42-2.23,1.27-3.02
				c0.84-0.79,2.01-1.18,3.5-1.18c1.22,0,2.27,0.28,3.14,0.84c0.87,0.56,1.31,1.36,1.31,2.39c0,0.42-0.11,0.75-0.34,1
				c-0.22,0.25-0.52,0.38-0.88,0.38s-0.66-0.1-0.89-0.3c-0.23-0.2-0.35-0.47-0.35-0.82c0.22-0.17,0.38-0.36,0.47-0.56
				c0.09-0.2,0.13-0.44,0.13-0.71c0-0.48-0.21-0.88-0.63-1.19s-1.07-0.47-1.95-0.47c-0.76,0-1.41,0.12-1.96,0.35
				c-0.54,0.23-0.95,0.54-1.23,0.92c-0.28,0.38-0.41,0.77-0.41,1.17c0,0.41,0.15,0.74,0.45,0.98c0.3,0.24,0.86,0.51,1.67,0.8
				l3.62,1.29c0.85,0.31,1.48,0.74,1.92,1.29c0.43,0.55,0.65,1.27,0.65,2.15c0,1.26-0.4,2.3-1.19,3.13s-2,1.24-3.62,1.24
				C345.59,604.4,344.4,604.1,343.45,603.49z"/>
			<path d="M368.31,603.53c-0.71-0.58-1.06-1.44-1.06-2.58c0-1.62,0.68-2.77,2.04-3.46s2.94-1.02,4.74-1.02h1.73v-1.99
				c0-0.9-0.1-1.59-0.3-2.08c-0.2-0.49-0.5-0.84-0.92-1.04s-0.97-0.3-1.68-0.3c-0.81,0-1.42,0.16-1.81,0.48
				c-0.4,0.32-0.6,0.75-0.6,1.28c0,0.5,0.24,0.83,0.72,0.98c0,0.43-0.16,0.81-0.49,1.14c-0.33,0.33-0.72,0.49-1.16,0.49
				c-0.48,0-0.87-0.13-1.17-0.4c-0.29-0.27-0.44-0.68-0.44-1.23c0-1,0.5-1.8,1.5-2.41c1-0.6,2.25-0.91,3.75-0.91
				c3.45,0,5.18,1.5,5.18,4.5v7.4c0,0.38,0.08,0.67,0.25,0.87c0.16,0.2,0.4,0.3,0.71,0.3c0.29,0,0.53-0.1,0.7-0.3
				c0.17-0.2,0.26-0.47,0.26-0.82h0.54c0,0.6-0.19,1.08-0.58,1.42c-0.39,0.34-0.93,0.52-1.62,0.52c-0.79,0-1.46-0.23-2.01-0.69
				s-0.82-1.17-0.84-2.14c-0.41,0.88-1.05,1.57-1.9,2.07c-0.85,0.5-1.8,0.75-2.83,0.75C369.92,604.4,369.01,604.11,368.31,603.53z
				 M373.88,602.85c0.49-0.28,0.91-0.68,1.26-1.2c0.34-0.53,0.55-1.16,0.62-1.9v-2.69h-1.73c-1.42,0-2.47,0.31-3.17,0.94
				c-0.7,0.63-1.05,1.51-1.05,2.65c0,0.95,0.22,1.62,0.67,2.02c0.45,0.4,1.1,0.6,1.97,0.6
				C372.91,603.26,373.39,603.12,373.88,602.85z"/>
			<path d="M396.34,603.49c-0.95-0.6-1.42-1.39-1.42-2.36c0-0.5,0.13-0.89,0.4-1.18c0.27-0.29,0.63-0.43,1.07-0.43
				c0.34,0,0.64,0.09,0.88,0.26c0.24,0.17,0.41,0.41,0.52,0.72c-0.38,0.41-0.57,0.85-0.57,1.32c0,0.54,0.24,1,0.72,1.4
				c0.48,0.4,1.13,0.6,1.94,0.6c1.09,0,1.98-0.25,2.67-0.74c0.69-0.49,1.04-1.15,1.04-1.98c0-0.48-0.15-0.85-0.44-1.09
				c-0.29-0.24-0.86-0.52-1.71-0.83l-3.91-1.42c-1.54-0.55-2.3-1.58-2.3-3.08c0-1.22,0.42-2.23,1.27-3.02
				c0.84-0.79,2.01-1.18,3.5-1.18c1.22,0,2.27,0.28,3.14,0.84c0.87,0.56,1.31,1.36,1.31,2.39c0,0.42-0.11,0.75-0.34,1
				c-0.22,0.25-0.52,0.38-0.88,0.38s-0.66-0.1-0.89-0.3c-0.23-0.2-0.35-0.47-0.35-0.82c0.22-0.17,0.38-0.36,0.47-0.56
				c0.09-0.2,0.13-0.44,0.13-0.71c0-0.48-0.21-0.88-0.63-1.19s-1.07-0.47-1.95-0.47c-0.76,0-1.41,0.12-1.96,0.35
				c-0.54,0.23-0.95,0.54-1.23,0.92c-0.28,0.38-0.41,0.77-0.41,1.17c0,0.41,0.15,0.74,0.45,0.98c0.3,0.24,0.86,0.51,1.67,0.8
				l3.62,1.29c0.85,0.31,1.48,0.74,1.92,1.29c0.43,0.55,0.65,1.27,0.65,2.15c0,1.26-0.4,2.3-1.19,3.13s-2,1.24-3.62,1.24
				C398.47,604.4,397.29,604.1,396.34,603.49z"/>
		</g>
	</g>
	<g>
		<g>
			<linearGradient id="SVGID_1_" gradientUnits="userSpaceOnUse" x1="188.3301" y1="339.5791" x2="407.0901" y2="339.5791">
				<stop  offset="0" style="stop-color:#7A4C32"/>
				<stop  offset="0.0151" style="stop-color:#7B4D33"/>
				<stop  offset="0.3014" style="stop-color:#9A6643"/>
				<stop  offset="0.5695" style="stop-color:#B17A4F"/>
				<stop  offset="0.8102" style="stop-color:#BF8657"/>
				<stop  offset="1" style="stop-color:#C58B59"/>
			</linearGradient>
			<path class="st0" d="M297.71,230.2c-60.41,0-109.38,48.97-109.38,109.38c0,60.41,48.97,109.38,109.38,109.38
				c60.41,0,109.38-48.97,109.38-109.38C407.09,279.17,358.12,230.2,297.71,230.2z M297.71,443.14
				c-57.2,0-103.56-46.37-103.56-103.56c0-57.2,46.37-103.56,103.56-103.56s103.56,46.37,103.56,103.56
				C401.27,396.78,354.91,443.14,297.71,443.14z"/>
			<linearGradient id="SVGID_2_" gradientUnits="userSpaceOnUse" x1="198.1456" y1="339.579" x2="397.2747" y2="339.579">
				<stop  offset="0" style="stop-color:#7A4C32"/>
				<stop  offset="0.0151" style="stop-color:#7B4D33"/>
				<stop  offset="0.3014" style="stop-color:#9A6643"/>
				<stop  offset="0.5695" style="stop-color:#B17A4F"/>
				<stop  offset="0.8102" style="stop-color:#BF8657"/>
				<stop  offset="1" style="stop-color:#C58B59"/>
			</linearGradient>
			<circle class="st1" cx="297.71" cy="339.58" r="99.56"/>
		</g>
		<path class="st2" d="M346.97,372.92c-3.4-4.28-8.58-7.3-15.54-9.06l-15.01-3.94c5.12-3.71,9.25-8.49,12.37-14.37
			c2.97-5.6,4.78-11.92,5.45-18.93c0.3,0.14,0.61,0.26,0.91,0.4l8.64,17.52h2.64v-24.48h-2.64l-8.76,3.72
			c-0.18-0.08-0.38-0.15-0.56-0.22c0.05-1.07,0.08-2.16,0.08-3.27c0-9.6-1.92-18.02-5.76-25.26c-3.84-7.24-9.18-12.84-16.02-16.8
			c-6.84-3.96-14.66-5.94-23.46-5.94h-45.96v2.64l11.04,1.68v87.36l-11.04,1.8v2.52h45.96c2.47,0,4.85-0.18,7.17-0.49
			c3.16,2.5,7.12,4.4,11.91,5.66l19.92,5.16c6.64,1.68,11.44,3.94,14.4,6.78c2.96,2.84,4.44,6.7,4.44,11.58
			c0,6.72-2.3,11.94-6.9,15.66c-4.6,3.72-10.42,5.58-17.46,5.58c-8.56,0-16.16-2.36-22.8-7.08l-10.32-22.32h-2.64v30.84h2.64
			l10.2-5.16c7.2,4.24,14.52,6.36,21.96,6.36c9.2,0,16.54-2.52,22.02-7.56c5.48-5.04,8.22-12,8.22-20.88
			C352.07,383.7,350.37,377.2,346.97,372.92z M319.31,329.53c0,7.68-1.28,14.22-3.84,19.62c-1.67,3.53-3.77,6.47-6.28,8.86
			c-5.14-1.42-9.08-3.3-11.78-5.67c-2.84-2.48-4.26-5.88-4.26-10.2c0-5.84,2-10.54,6-14.1c4-3.56,9.48-5.34,16.44-5.34
			c1.26,0,2.5,0.06,3.72,0.15V329.53z M267.59,365.41v-90.12h21.72c5.84,0,11.02,1.36,15.54,4.08c4.52,2.72,8.06,6.76,10.62,12.12
			c2.56,5.36,3.84,11.88,3.84,19.56v9.14c-1.26-0.08-2.53-0.13-3.84-0.13c-5.84,0-10.88,1.18-15.12,3.54
			c-4.24,2.36-7.46,5.68-9.66,9.96c-2.2,4.28-3.3,9.18-3.3,14.7c0,6.08,1.76,11.34,5.28,15.78c0.3,0.38,0.64,0.74,0.97,1.11
			c-1.4,0.18-2.84,0.27-4.32,0.27H267.59z"/>
	</g>
</g>
</svg>
